<svg xmlns="http://www.w3.org/2000/svg" viewBox="0 0 147 147">
  <title>gear</title>
  <g id="Layer_2" data-name="Layer 2">
    <g id="Layer_1-2" data-name="Layer 1">
      <path d="M144,56.5H126.41A5,5,0,0,1,122.87,48L135.4,35.43a3,3,0,0,0,0-4.24l-19.8-19.8a3,3,0,0,0-4.24,0L99,23.72a5,5,0,0,1-8.54-3.54V3a3,3,0,0,0-3-3h-28a3,3,0,0,0-3,3V20.12A5,5,0,0,1,48,23.66L35.7,11.39a3,3,0,0,0-4.24,0l-19.8,19.8a3,3,0,0,0,0,4.24L24.19,48a5,5,0,0,1-3.54,8.54H3a3,3,0,0,0-3,3v28a3,3,0,0,0,3,3H20.18A5,5,0,0,1,23.72,99l-12.06,12a3,3,0,0,0,0,4.25l19.8,19.79a3,3,0,0,0,4.24,0L48,122.87a5,5,0,0,1,8.54,3.54V144a3,3,0,0,0,3,3h28a3,3,0,0,0,3-3V126.35A5,5,0,0,1,99,122.81l12.32,12.32a3,3,0,0,0,4.24,0l19.8-19.79a3,3,0,0,0,0-4.25L123.34,99a5,5,0,0,1,3.54-8.54H144a3,3,0,0,0,3-3v-28A3,3,0,0,0,144,56.5ZM73.5,95A21.5,21.5,0,1,1,95,73.5,21.51,21.51,0,0,1,73.5,95Z"/>
    </g>
  </g>
</svg>
