<svg xmlns="http://www.w3.org/2000/svg" viewBox="0 0 15.24 15.24">
  <title>Asset 5</title>
  <g id="Layer_2" data-name="Layer 2">
    <g id="Layer_1-2" data-name="Layer 1">
      <path d="M7.62,0a7.62,7.62,0,1,0,7.62,7.62A7.62,7.62,0,0,0,7.62,0Zm2.89,11a3.83,3.83,0,0,1-2.09.85v.84a.29.29,0,0,1-.08.22.33.33,0,0,1-.22.08h-1a.32.32,0,0,1-.21-.08.29.29,0,0,1-.09-.22v-.84a4.17,4.17,0,0,1-1.53-.45,2.48,2.48,0,0,1-1-.85A2.17,2.17,0,0,1,4,9.52.22.22,0,0,1,4,9.34a.25.25,0,0,1,.18-.08h1.6a.54.54,0,0,1,.24.05.7.7,0,0,1,.19.17,1.44,1.44,0,0,0,1.37.66,2.08,2.08,0,0,0,1-.2A.6.6,0,0,0,9,9.4.55.55,0,0,0,8.79,9a1.73,1.73,0,0,0-.58-.29c-.26-.08-.64-.17-1.14-.28A5,5,0,0,1,4.9,7.54a2.07,2.07,0,0,1-.72-1.68,2.22,2.22,0,0,1,.69-1.65,3.26,3.26,0,0,1,1.91-.85V2.52a.29.29,0,0,1,.09-.22.32.32,0,0,1,.21-.08h1a.33.33,0,0,1,.22.08.29.29,0,0,1,.08.22v.86a3.91,3.91,0,0,1,1.37.51,2.85,2.85,0,0,1,.88.84,1.81,1.81,0,0,1,.33.92.26.26,0,0,1-.07.19.25.25,0,0,1-.18.08H9.07a.47.47,0,0,1-.41-.22.72.72,0,0,0-.37-.43,1.56,1.56,0,0,0-.74-.17,1.41,1.41,0,0,0-.78.18.59.59,0,0,0-.28.53.6.6,0,0,0,.36.54,5.27,5.27,0,0,0,1.33.41,7,7,0,0,1,1.8.51,2.17,2.17,0,0,1,1,.79,2.2,2.2,0,0,1,.31,1.23A2.25,2.25,0,0,1,10.51,11Z" style="fill: #888"/>
    </g>
  </g>
</svg>
