<svg xmlns="http://www.w3.org/2000/svg" viewBox="0 0 65 48">
  <title>Asset 1</title>
  <g id="Layer_2" data-name="Layer 2">
    <g id="Layer_1-2" data-name="Layer 1">
      <rect x="2" y="2" width="61" height="44" rx="5" style="fill: none;stroke: #000;stroke-miterlimit: 10;stroke-width: 4px"/>
      <g>
        <circle cx="25" cy="24" r="10" style="fill: none;stroke: #000;stroke-miterlimit: 10;stroke-width: 4px"/>
        <path d="M39,12a12,12,0,0,0-9.72,5H33v2H28.11c-.15.33-.29.66-.41,1H33v2H27.18c-.05.33-.1.66-.13,1H33v2H27.05c0,.34.08.67.13,1H33v2H27.7c.12.34.26.67.41,1H33v2H29.28A12,12,0,1,0,39,12Z"/>
      </g>
    </g>
  </g>
</svg>
